<?xml version="1.0" encoding="UTF-8" standalone="no"?>
<!-- Created with Inkscape (http://www.inkscape.org/) -->

<svg
   width="512"
   height="512"
   viewBox="0 0 512 512"
   version="1.1"
   id="svg5"
   inkscape:version="1.1.1 (3bf5ae0d25, 2021-09-20)"
   sodipodi:docname="logo.svg"
   inkscape:export-filename="D:\AndroidStudioProjects\corecoder_develop\assets\logo.png"
   inkscape:export-xdpi="96"
   inkscape:export-ydpi="96"
   xmlns:inkscape="http://www.inkscape.org/namespaces/inkscape"
   xmlns:sodipodi="http://sodipodi.sourceforge.net/DTD/sodipodi-0.dtd"
   xmlns:xlink="http://www.w3.org/1999/xlink"
   xmlns="http://www.w3.org/2000/svg"
   xmlns:svg="http://www.w3.org/2000/svg">
  <sodipodi:namedview
     id="namedview7"
     pagecolor="#505050"
     bordercolor="#eeeeee"
     borderopacity="1"
     inkscape:pageshadow="0"
     inkscape:pageopacity="0"
     inkscape:pagecheckerboard="0"
     inkscape:document-units="px"
     showgrid="false"
     inkscape:zoom="0.731966"
     inkscape:cx="303.97587"
     inkscape:cy="242.4976"
     inkscape:window-width="1366"
     inkscape:window-height="715"
     inkscape:window-x="-8"
     inkscape:window-y="-8"
     inkscape:window-maximized="1"
     inkscape:current-layer="layer1" />
  <defs
     id="defs2">
    <linearGradient
       inkscape:collect="always"
       id="linearGradient5108">
      <stop
         style="stop-color:#00ff81;stop-opacity:1"
         offset="0"
         id="stop5104" />
      <stop
         style="stop-color:#ffffff;stop-opacity:0.96862745"
         offset="1"
         id="stop5106" />
    </linearGradient>
    <linearGradient
       inkscape:collect="always"
       id="linearGradient2439">
      <stop
         style="stop-color:#00ff65;stop-opacity:1"
         offset="0"
         id="stop2435" />
      <stop
         style="stop-color:#337a8b;stop-opacity:1"
         offset="1"
         id="stop2437" />
    </linearGradient>
    <linearGradient
       inkscape:collect="always"
       xlink:href="#linearGradient2439"
       id="linearGradient2441"
       x1="202.07654"
       y1="168.0219"
       x2="522.80103"
       y2="-152.70261"
       gradientUnits="userSpaceOnUse"
       gradientTransform="matrix(1.2740023,0,0,1.2740023,-461.74785,-371.79708)" />
    <linearGradient
       inkscape:collect="always"
       xlink:href="#linearGradient5108"
       id="linearGradient5110"
       x1="251.37781"
       y1="58.745899"
       x2="257.36618"
       y2="421.89676"
       gradientUnits="userSpaceOnUse" />
  </defs>
  <g
     inkscape:label="Layer 1"
     inkscape:groupmode="layer"
     id="layer1">
    <rect
       style="fill:url(#linearGradient2441);fill-opacity:1;stroke-width:1.274;stroke-miterlimit:4;stroke-dasharray:none"
       id="rect846"
       width="408.60376"
       height="408.60376"
       x="-204.30188"
       y="-566.34058"
       transform="rotate(135)"
       ry="123.07343" />
    <rect
       style="fill:#ffffff;fill-opacity:1;stroke-width:0.466761"
       id="rect846-1"
       width="149.70248"
       height="149.70248"
       x="-75.2556"
       y="-436.89059"
       transform="matrix(-0.70631657,0.70789611,-0.70631657,-0.70789611,0,0)"
       ry="18.426723" />
    <path
       id="rect846-2"
       style="fill:url(#linearGradient5110);fill-opacity:1;stroke-width:0.93659"
       d="m 461.4701,256.00001 c 0,-14.41194 -5.5201,-28.82282 -16.56238,-39.86599 L 295.86361,67.078445 c -22.08459,-22.08629 -57.64163,-22.086319 -79.72621,10e-7 L 67.093287,216.13402 c -22.084599,22.08629 -22.084567,57.64565 4e-6,79.73196 l 149.044189,149.0555 c 22.08475,22.08616 57.64165,22.08633 79.72621,-10e-6 L 444.90787,295.86598 C 455.95014,284.82281 461.47024,270.41191 461.47024,256 Z M 423.21891,256 c 0,11.72891 -4.49302,23.45814 -13.47959,32.44546 L 288.44304,409.75022 c -17.97315,17.97457 -46.91197,17.97458 -64.88511,0 L 102.26164,288.44546 c -17.973161,-17.97458 -17.973147,-46.91632 1e-5,-64.8909 L 223.55793,102.24979 c 17.97315,-17.974566 46.91197,-17.974587 64.88511,0 l 121.29628,121.30477 c 8.98658,8.98729 13.47959,20.71655 13.47959,32.44544 z" />
  </g>
</svg>
